<svg width="1440" height="5837" viewBox="0 0 1440 5837" fill="none" xmlns="http://www.w3.org/2000/svg">
<g clip-path="url(#clip0_613_2)">
<rect width="1440" height="5837" fill="#120C21"/>
<g opacity="0.8" filter="url(#filter0_f_613_2)">
<path d="M578.327 563.795C510.221 755.284 610.243 965.729 801.733 1033.84L1180.97 1168.72C1372.46 1236.82 1582.91 1136.8 1651.01 945.312L1777.23 590.422C1845.34 398.932 1745.32 188.488 1553.83 120.382L1174.59 -14.5008C983.1 -82.6072 772.656 17.4149 704.549 208.905L578.327 563.795Z" fill="#8D08FF" fill-opacity="0.35"/>
</g>
<g opacity="0.27" filter="url(#filter1_f_613_2)">
<path d="M924.2 4311.66C856.094 4503.15 956.116 4713.6 1147.61 4781.7L1962.11 5071.39C2153.6 5139.5 2364.04 5039.48 2432.15 4847.99L2635.74 4275.56C2703.85 4084.07 2603.83 3873.63 2412.34 3805.52L1597.83 3515.83C1406.34 3447.72 1195.9 3547.74 1127.79 3739.23L924.2 4311.66Z" fill="#8132C5" fill-opacity="0.6"/>
</g>
<g opacity="0.3" filter="url(#filter2_f_613_2)">
<path d="M-758.376 996.747C-826.482 1188.24 -726.46 1398.68 -534.97 1466.79L-273.954 1559.62C-82.4645 1627.73 127.98 1527.71 196.086 1336.22L222.058 1263.19C290.164 1071.7 190.142 861.259 -1.34742 793.153L-262.364 700.319C-453.853 632.212 -664.298 732.234 -732.404 923.724L-758.376 996.747Z" fill="#8132C5" fill-opacity="0.6"/>
</g>
<g opacity="0.3" filter="url(#filter3_f_613_2)">
<path d="M-717.849 1882.57C-785.955 2074.06 -685.933 2284.5 -494.443 2352.61L-233.427 2445.44C-41.9372 2513.55 168.507 2413.53 236.614 2222.04L262.585 2149.01C330.692 1957.52 230.67 1747.08 39.1799 1678.97L-221.836 1586.14C-413.326 1518.03 -623.77 1618.05 -691.877 1809.54L-717.849 1882.57Z" fill="#8132C5" fill-opacity="0.6"/>
</g>
<g opacity="0.4" filter="url(#filter4_f_613_2)">
<path d="M-1115.68 3897.63C-1183.79 4089.12 -1083.77 4299.56 -892.277 4367.67L-237.608 4600.51C-46.1179 4668.62 164.326 4568.59 232.433 4377.1L388.304 3938.85C456.41 3747.36 356.388 3536.92 164.899 3468.81L-489.771 3235.97C-681.261 3167.86 -891.705 3267.88 -959.811 3459.37L-1115.68 3897.63Z" fill="#8132C5" fill-opacity="0.6"/>
</g>
<g opacity="0.27" filter="url(#filter5_f_613_2)">
<path d="M882.317 3155.55C814.211 3347.04 914.233 3557.49 1105.72 3625.59L2042.21 3958.67C2233.7 4026.78 2444.15 3926.76 2512.25 3735.27L2752.27 3060.44C2820.37 2868.95 2720.35 2658.5 2528.86 2590.39L1592.37 2257.32C1400.88 2189.21 1190.44 2289.23 1122.33 2480.72L882.317 3155.55Z" fill="#8132C5" fill-opacity="0.6"/>
</g>
<g opacity="0.4" filter="url(#filter6_f_613_2)">
<path d="M-556.565 5380.1C-624.672 5571.59 -524.65 5782.03 -333.16 5850.14L122.588 6012.23C314.078 6080.34 524.522 5980.32 592.628 5788.83L689.108 5517.56C757.214 5326.07 657.192 5115.63 465.702 5047.52L9.95466 4885.43C-181.535 4817.32 -391.98 4917.35 -460.086 5108.84L-556.565 5380.1Z" fill="#803DBA" fill-opacity="0.45"/>
</g>
<g opacity="0.4" filter="url(#filter7_f_613_2)">
<path opacity="0.5" fill-rule="evenodd" clip-rule="evenodd" d="M1174.54 4810.46C1106.25 4694.68 912.158 4633.19 928.361 4501.84C944.828 4368.34 1142.01 4351.46 1242.29 4261.2C1323.55 4188.06 1361.9 4079.31 1457.69 4025.41C1579.31 3956.97 1728.91 3850.22 1854.25 3916.84C1982.79 3985.16 1923.15 4187.59 1996.39 4311.75C2064.76 4427.63 2243.36 4474.11 2260.85 4606.08C2278.56 4739.68 2174.43 4857.4 2081.58 4954.47C1992.76 5047.34 1874.72 5098.97 1751 5139.14C1616.07 5182.96 1462.44 5267.07 1337.79 5195.99C1211.85 5124.19 1247.48 4934.12 1174.54 4810.46Z" stroke="#F0DEFF" stroke-opacity="0.6" stroke-width="3"/>
<path opacity="0.5" fill-rule="evenodd" clip-rule="evenodd" d="M1180.37 4796.38C1112.08 4680.6 917.984 4619.12 934.187 4487.76C950.654 4354.26 1147.84 4337.38 1248.12 4247.12C1329.38 4173.98 1367.73 4065.23 1463.52 4011.33C1585.14 3942.89 1734.74 3836.14 1860.08 3902.76C1988.62 3971.09 1928.98 4173.52 2002.22 4297.67C2070.58 4413.56 2249.18 4460.03 2266.68 4592.01C2284.38 4725.6 2180.25 4843.32 2087.41 4940.4C1998.59 5033.26 1880.55 5084.89 1756.83 5125.07C1621.9 5168.88 1468.26 5252.99 1343.61 5181.92C1217.68 5110.11 1253.31 4920.05 1180.37 4796.38Z" stroke="#F0DEFF" stroke-opacity="0.6" stroke-width="3"/>
<path opacity="0.5" fill-rule="evenodd" clip-rule="evenodd" d="M1188.12 4784.47C1119.83 4668.69 925.734 4607.21 941.937 4475.85C958.404 4342.35 1155.59 4325.47 1255.87 4235.21C1337.13 4162.07 1375.48 4053.32 1471.27 3999.42C1592.89 3930.98 1742.49 3824.23 1867.83 3890.85C1996.37 3959.18 1936.73 4161.61 2009.97 4285.76C2078.33 4401.65 2256.93 4448.13 2274.43 4580.1C2292.13 4713.69 2188 4831.42 2095.16 4928.49C2006.34 5021.35 1888.3 5072.98 1764.58 5113.16C1629.65 5156.97 1476.01 5241.08 1351.36 5170.01C1225.43 5098.2 1261.06 4908.14 1188.12 4784.47Z" stroke="#F0DEFF" stroke-opacity="0.6" stroke-width="3"/>
</g>
<g opacity="0.4" filter="url(#filter8_f_613_2)">
<path opacity="0.5" fill-rule="evenodd" clip-rule="evenodd" d="M303.148 2838.06C199.657 2975.54 211.409 3242.63 54.3966 3283.41C-105.181 3324.85 -207.824 3090.18 -353.398 3008.58C-471.36 2942.45 -611.889 2945.55 -713.997 2852.67C-843.642 2734.75 -1028.92 2600.12 -1005.74 2415.2C-981.961 2225.56 -725.336 2205.36 -614.362 2057.92C-510.779 1920.3 -533.139 1679.2 -389.666 1596.7C-244.423 1513.19 -65.8299 1586.83 84.385 1656.14C228.091 1722.45 337.011 1843.74 435.232 1977.31C542.354 2122.98 703.446 2273.03 674.884 2459.16C646.029 2647.2 413.69 2691.22 303.148 2838.06Z" stroke="#F0DEFF" stroke-opacity="0.6" stroke-width="3"/>
<path opacity="0.5" fill-rule="evenodd" clip-rule="evenodd" d="M284.591 2837.41C181.1 2974.88 192.852 3241.97 35.8399 3282.75C-123.738 3324.19 -226.381 3089.52 -371.955 3007.92C-489.916 2941.8 -630.446 2944.89 -732.553 2852.01C-862.199 2734.09 -1047.47 2599.46 -1024.29 2414.55C-1000.52 2224.91 -743.893 2204.7 -632.918 2057.26C-529.336 1919.64 -551.696 1678.54 -408.222 1596.04C-262.979 1512.53 -84.3865 1586.17 65.8284 1655.48C209.535 1721.79 318.454 1843.08 416.676 1976.65C523.797 2122.32 684.889 2272.37 656.328 2458.5C627.472 2646.54 395.133 2690.56 284.591 2837.41Z" stroke="#F0DEFF" stroke-opacity="0.6" stroke-width="3"/>
<path opacity="0.5" fill-rule="evenodd" clip-rule="evenodd" d="M267.702 2833.38C164.211 2970.85 175.963 3237.94 18.9512 3278.72C-140.626 3320.16 -243.269 3085.49 -388.844 3003.89C-506.805 2937.77 -647.335 2940.86 -749.442 2847.98C-879.088 2730.06 -1064.36 2595.43 -1041.18 2410.52C-1017.41 2220.88 -760.781 2200.67 -649.807 2053.23C-546.225 1915.61 -568.585 1674.51 -425.111 1592.01C-279.868 1508.5 -101.275 1582.15 48.9397 1651.45C192.646 1717.76 301.565 1839.05 399.787 1972.62C506.908 2118.29 668 2268.34 639.439 2454.47C610.583 2642.51 378.244 2686.53 267.702 2833.38Z" stroke="#F0DEFF" stroke-opacity="0.6" stroke-width="3"/>
</g>
<g opacity="0.4" filter="url(#filter9_f_613_2)">
<path opacity="0.5" fill-rule="evenodd" clip-rule="evenodd" d="M1219.32 1936.06C1315.78 1699.04 1130.94 1456.16 1380.49 1256.7C1634.12 1053.97 1957.99 1172.97 2262.8 1102C2509.8 1044.49 2753.69 897.837 2989.41 882.067C3288.71 862.045 3695.58 801.079 3768.76 1001.25C3843.82 1206.54 3407.39 1488.23 3303.97 1742.41C3207.44 1979.66 3394.84 2186.89 3194.63 2412.32C2991.95 2640.53 2634.28 2752.86 2328.91 2840.32C2036.77 2923.98 1771.66 2919.6 1517.71 2892.56C1240.74 2863.07 866.689 2884.6 802.167 2677.77C736.98 2468.81 1116.29 2189.22 1219.32 1936.06Z" stroke="#F0DEFF" stroke-opacity="0.6" stroke-width="3"/>
<path opacity="0.5" fill-rule="evenodd" clip-rule="evenodd" d="M1252.17 1927.89C1348.63 1690.87 1163.8 1447.99 1413.35 1248.53C1666.97 1045.81 1990.84 1164.81 2295.66 1093.83C2542.65 1036.32 2786.55 889.669 3022.27 873.9C3321.57 853.877 3728.43 792.911 3801.62 993.084C3876.68 1198.37 3440.24 1480.06 3336.82 1734.24C3240.29 1971.49 3427.69 2178.72 3227.49 2404.15C3024.81 2632.37 2667.14 2744.7 2361.77 2832.15C2069.63 2915.81 1804.52 2911.43 1550.56 2884.4C1273.6 2854.91 899.547 2876.43 835.024 2669.6C769.838 2460.64 1149.14 2181.06 1252.17 1927.89Z" stroke="#F0DEFF" stroke-opacity="0.6" stroke-width="3"/>
<path opacity="0.5" fill-rule="evenodd" clip-rule="evenodd" d="M1284.2 1914.46C1380.66 1677.44 1195.83 1434.57 1445.37 1235.1C1699 1032.38 2022.87 1151.38 2327.68 1080.4C2574.68 1022.89 2818.57 876.243 3054.29 860.474C3353.59 840.451 3760.46 779.485 3833.64 979.658C3908.7 1184.95 3472.27 1466.64 3368.85 1720.82C3272.32 1958.06 3459.72 2165.29 3259.51 2390.73C3056.83 2618.94 2699.16 2731.27 2393.79 2818.72C2101.65 2902.39 1836.54 2898.01 1582.59 2870.97C1305.62 2841.48 931.57 2863 867.048 2656.17C801.861 2447.21 1181.17 2167.63 1284.2 1914.46Z" stroke="#F0DEFF" stroke-opacity="0.6" stroke-width="3"/>
</g>
</g>
<defs>
<filter id="filter0_f_613_2" x="156.949" y="-435.878" width="2041.66" height="2025.97" filterUnits="userSpaceOnUse" color-interpolation-filters="sRGB">
<feFlood flood-opacity="0" result="BackgroundImageFix"/>
<feBlend mode="normal" in="SourceGraphic" in2="BackgroundImageFix" result="shape"/>
<feGaussianBlur stdDeviation="200" result="effect1_foregroundBlur_613_2"/>
</filter>
<filter id="filter1_f_613_2" x="502.822" y="3094.45" width="2554.3" height="2398.32" filterUnits="userSpaceOnUse" color-interpolation-filters="sRGB">
<feFlood flood-opacity="0" result="BackgroundImageFix"/>
<feBlend mode="normal" in="SourceGraphic" in2="BackgroundImageFix" result="shape"/>
<feGaussianBlur stdDeviation="200" result="effect1_foregroundBlur_613_2"/>
</filter>
<filter id="filter2_f_613_2" x="-1179.75" y="278.941" width="1823.19" height="1702.06" filterUnits="userSpaceOnUse" color-interpolation-filters="sRGB">
<feFlood flood-opacity="0" result="BackgroundImageFix"/>
<feBlend mode="normal" in="SourceGraphic" in2="BackgroundImageFix" result="shape"/>
<feGaussianBlur stdDeviation="200" result="effect1_foregroundBlur_613_2"/>
</filter>
<filter id="filter3_f_613_2" x="-1139.23" y="1164.76" width="1823.19" height="1702.06" filterUnits="userSpaceOnUse" color-interpolation-filters="sRGB">
<feFlood flood-opacity="0" result="BackgroundImageFix"/>
<feBlend mode="normal" in="SourceGraphic" in2="BackgroundImageFix" result="shape"/>
<feGaussianBlur stdDeviation="200" result="effect1_foregroundBlur_613_2"/>
</filter>
<filter id="filter4_f_613_2" x="-1537.06" y="2814.59" width="2346.74" height="2207.3" filterUnits="userSpaceOnUse" color-interpolation-filters="sRGB">
<feFlood flood-opacity="0" result="BackgroundImageFix"/>
<feBlend mode="normal" in="SourceGraphic" in2="BackgroundImageFix" result="shape"/>
<feGaussianBlur stdDeviation="200" result="effect1_foregroundBlur_613_2"/>
</filter>
<filter id="filter5_f_613_2" x="460.939" y="1835.94" width="2712.71" height="2544.11" filterUnits="userSpaceOnUse" color-interpolation-filters="sRGB">
<feFlood flood-opacity="0" result="BackgroundImageFix"/>
<feBlend mode="normal" in="SourceGraphic" in2="BackgroundImageFix" result="shape"/>
<feGaussianBlur stdDeviation="200" result="effect1_foregroundBlur_613_2"/>
</filter>
<filter id="filter6_f_613_2" x="-977.943" y="4464.05" width="2088.43" height="1969.56" filterUnits="userSpaceOnUse" color-interpolation-filters="sRGB">
<feFlood flood-opacity="0" result="BackgroundImageFix"/>
<feBlend mode="normal" in="SourceGraphic" in2="BackgroundImageFix" result="shape"/>
<feGaussianBlur stdDeviation="200" result="effect1_foregroundBlur_613_2"/>
</filter>
<filter id="filter7_f_613_2" x="915.887" y="3858.32" width="1372.04" height="1376.65" filterUnits="userSpaceOnUse" color-interpolation-filters="sRGB">
<feFlood flood-opacity="0" result="BackgroundImageFix"/>
<feBlend mode="normal" in="SourceGraphic" in2="BackgroundImageFix" result="shape"/>
<feGaussianBlur stdDeviation="5" result="effect1_foregroundBlur_613_2"/>
</filter>
<filter id="filter8_f_613_2" x="-1052.59" y="1545.26" width="1740.24" height="1752.59" filterUnits="userSpaceOnUse" color-interpolation-filters="sRGB">
<feFlood flood-opacity="0" result="BackgroundImageFix"/>
<feBlend mode="normal" in="SourceGraphic" in2="BackgroundImageFix" result="shape"/>
<feGaussianBlur stdDeviation="4" result="effect1_foregroundBlur_613_2"/>
</filter>
<filter id="filter9_f_613_2" x="778.105" y="819.531" width="3080.75" height="2106.87" filterUnits="userSpaceOnUse" color-interpolation-filters="sRGB">
<feFlood flood-opacity="0" result="BackgroundImageFix"/>
<feBlend mode="normal" in="SourceGraphic" in2="BackgroundImageFix" result="shape"/>
<feGaussianBlur stdDeviation="7.5" result="effect1_foregroundBlur_613_2"/>
</filter>
<clipPath id="clip0_613_2">
<rect width="1440" height="5837" fill="white"/>
</clipPath>
</defs>
</svg>
