<svg width="1024" height="3764" viewBox="0 0 1024 3764" fill="none" xmlns="http://www.w3.org/2000/svg">
<g clip-path="url(#clip0_564_2)">
<rect width="1024" height="3764" fill="#120C21"/>
<g filter="url(#filter0_f_564_2)">
<circle cx="818.5" cy="415.5" r="286.5" fill="#8D08FF" fill-opacity="0.4"/>
</g>
<g filter="url(#filter1_f_564_2)">
<circle cx="31.5" cy="314.5" r="196.5" fill="#8D08FF" fill-opacity="0.2"/>
</g>
<g filter="url(#filter2_f_564_2)">
<circle cx="42.5" cy="1097.5" r="196.5" fill="#8D08FF" fill-opacity="0.2"/>
</g>
<g filter="url(#filter3_f_564_2)">
<circle cx="893.5" cy="1371.5" r="196.5" fill="#8D08FF" fill-opacity="0.2"/>
</g>
<g filter="url(#filter4_f_564_2)">
<circle cx="228" cy="2107" r="254" fill="#8D08FF" fill-opacity="0.2"/>
</g>
<g filter="url(#filter5_f_564_2)">
<circle cx="792" cy="2759" r="254" fill="#8D08FF" fill-opacity="0.2"/>
</g>
<g filter="url(#filter6_f_564_2)">
<circle cx="103" cy="3337" r="254" fill="#8D08FF" fill-opacity="0.2"/>
</g>
<g filter="url(#filter7_f_564_2)">
<circle cx="894" cy="3740" r="254" fill="#8D08FF" fill-opacity="0.2"/>
</g>
<g opacity="0.4" filter="url(#filter8_f_564_2)">
<path opacity="0.5" fill-rule="evenodd" clip-rule="evenodd" d="M202.607 1440.1C145.942 1515.37 152.376 1661.62 66.4062 1683.94C-20.9687 1706.64 -77.1697 1578.15 -156.877 1533.46C-221.466 1497.26 -298.411 1498.95 -354.319 1448.1C-425.305 1383.53 -526.75 1309.82 -514.057 1208.57C-501.04 1104.73 -360.528 1093.67 -299.765 1012.94C-243.05 937.589 -255.292 805.577 -176.735 760.407C-97.2089 714.68 0.577504 755.004 82.826 792.953C161.511 829.258 221.148 895.669 274.928 968.805C333.581 1048.57 421.786 1130.72 406.147 1232.63C390.348 1335.59 263.133 1359.7 202.607 1440.1Z" stroke="#F0DEFF" stroke-opacity="0.6" stroke-width="1.3586"/>
<path opacity="0.5" fill-rule="evenodd" clip-rule="evenodd" d="M192.449 1439.74C135.783 1515.01 142.218 1661.26 56.248 1683.58C-31.1269 1706.28 -87.3279 1577.79 -167.036 1533.1C-231.624 1496.9 -308.569 1498.59 -364.477 1447.74C-435.463 1383.17 -536.908 1309.46 -524.215 1208.21C-511.198 1104.37 -370.686 1093.31 -309.923 1012.58C-253.208 937.229 -265.451 805.217 -186.893 760.047C-107.367 714.32 -9.5807 754.643 72.6678 792.593C151.353 828.898 210.99 895.309 264.77 968.444C323.423 1048.21 411.627 1130.36 395.989 1232.27C380.189 1335.23 252.975 1359.34 192.449 1439.74Z" stroke="#F0DEFF" stroke-opacity="0.6" stroke-width="1.3586"/>
<path opacity="0.5" fill-rule="evenodd" clip-rule="evenodd" d="M183.201 1437.53C126.535 1512.81 132.97 1659.05 46.9999 1681.38C-40.3749 1704.07 -96.576 1575.58 -176.284 1530.9C-240.872 1494.69 -317.817 1496.39 -373.725 1445.53C-444.711 1380.96 -546.156 1307.25 -533.463 1206C-520.446 1102.17 -379.934 1091.1 -319.171 1010.37C-262.456 935.022 -274.699 803.01 -196.141 757.84C-116.615 712.113 -18.8288 752.436 63.4197 790.386C142.105 826.691 201.742 893.102 255.522 966.237C314.175 1046 402.379 1128.16 386.741 1230.07C370.941 1333.03 243.727 1357.13 183.201 1437.53Z" stroke="#F0DEFF" stroke-opacity="0.6" stroke-width="1.3586"/>
</g>
<g opacity="0.4" filter="url(#filter9_f_564_2)">
<path opacity="0.5" fill-rule="evenodd" clip-rule="evenodd" d="M887.884 2074.65C814.071 1949.51 604.275 1883.05 621.788 1741.07C639.588 1596.77 852.721 1578.52 961.117 1480.96C1048.95 1401.9 1090.4 1284.36 1193.94 1226.1C1325.4 1152.12 1487.1 1036.73 1622.58 1108.74C1761.52 1182.59 1697.05 1401.4 1776.22 1535.6C1850.11 1660.86 2043.16 1711.1 2062.07 1853.74C2081.21 1998.15 1968.66 2125.39 1868.3 2230.32C1772.29 2330.69 1644.71 2386.5 1510.98 2429.93C1365.13 2477.28 1199.07 2568.2 1064.34 2491.37C928.214 2413.76 966.725 2208.32 887.884 2074.65Z" stroke="#F0DEFF" stroke-opacity="0.6" stroke-width="3"/>
<path opacity="0.5" fill-rule="evenodd" clip-rule="evenodd" d="M894.181 2059.44C820.368 1934.29 610.572 1867.83 628.085 1725.85C645.885 1581.55 859.018 1563.31 967.414 1465.74C1055.25 1386.69 1096.7 1269.14 1200.24 1210.88C1331.7 1136.91 1493.4 1021.52 1628.88 1093.53C1767.82 1167.38 1703.35 1386.18 1782.52 1520.38C1856.41 1645.64 2049.46 1695.88 2068.37 1838.53C2087.51 1982.93 1974.95 2110.18 1874.6 2215.1C1778.59 2315.48 1651 2371.29 1517.27 2414.71C1371.43 2462.07 1205.37 2552.98 1070.63 2476.16C934.511 2398.54 973.022 2193.11 894.181 2059.44Z" stroke="#F0DEFF" stroke-opacity="0.6" stroke-width="3"/>
<path opacity="0.5" fill-rule="evenodd" clip-rule="evenodd" d="M902.56 2046.56C828.747 1921.42 618.951 1854.96 636.464 1712.98C654.264 1568.68 867.397 1550.43 975.793 1452.87C1063.63 1373.81 1105.08 1256.27 1208.62 1198.01C1340.08 1124.03 1501.78 1008.64 1637.26 1080.65C1776.2 1154.51 1711.73 1373.31 1790.9 1507.51C1864.79 1632.77 2057.84 1683.01 2076.75 1825.65C2095.89 1970.06 1983.33 2097.3 1882.98 2202.23C1786.97 2302.61 1659.38 2358.41 1525.65 2401.84C1379.81 2449.2 1213.75 2540.11 1079.01 2463.29C942.89 2385.67 981.401 2180.23 902.56 2046.56Z" stroke="#F0DEFF" stroke-opacity="0.6" stroke-width="3"/>
</g>
<g opacity="0.4" filter="url(#filter10_f_564_2)">
<path opacity="0.5" fill-rule="evenodd" clip-rule="evenodd" d="M10.5771 2810.5C-79.6599 2806.99 -191.321 2891.94 -255.867 2836.43C-321.468 2780.01 -250.972 2665.56 -259.322 2578.38C-266.089 2507.73 -309.456 2448.06 -299.944 2376.24C-287.867 2285.07 -285.226 2164.91 -198.553 2119.6C-109.664 2073.13 -24.1954 2177.75 72.5759 2181.5C162.901 2185.01 260.183 2103.26 338.669 2140.45C418.124 2178.11 439.782 2277.15 454.823 2362.65C469.211 2444.46 449.485 2527.7 421.263 2610.01C390.484 2699.77 373.96 2814.12 285.156 2857.47C195.437 2901.27 106.962 2814.24 10.5771 2810.5Z" stroke="#F0DEFF" stroke-opacity="0.6" stroke-width="1.58384"/>
<path opacity="0.5" fill-rule="evenodd" clip-rule="evenodd" d="M5.31244 2802.3C-84.9246 2798.79 -196.585 2883.74 -261.131 2828.23C-326.732 2771.81 -256.236 2657.36 -264.587 2570.18C-271.353 2499.53 -314.72 2439.86 -305.209 2368.05C-293.131 2276.87 -290.491 2156.71 -203.818 2111.4C-114.929 2064.93 -29.46 2169.55 67.3113 2173.3C157.637 2176.81 254.918 2095.06 333.405 2132.25C412.859 2169.91 434.518 2268.95 449.558 2354.45C463.947 2436.26 444.22 2519.5 415.998 2601.81C385.219 2691.57 368.696 2805.92 279.891 2849.27C190.172 2893.07 101.698 2806.04 5.31244 2802.3Z" stroke="#F0DEFF" stroke-opacity="0.6" stroke-width="1.58384"/>
<path opacity="0.5" fill-rule="evenodd" clip-rule="evenodd" d="M1.99798 2793.81C-88.239 2790.3 -199.9 2875.25 -264.446 2819.74C-330.047 2763.32 -259.551 2648.87 -267.901 2561.69C-274.668 2491.04 -318.035 2431.37 -308.523 2359.56C-296.446 2268.38 -293.805 2148.22 -207.132 2102.91C-118.244 2056.44 -32.7745 2161.06 63.9968 2164.82C154.322 2168.32 251.604 2086.57 330.09 2123.76C409.545 2161.42 431.203 2260.46 446.243 2345.97C460.632 2427.77 440.906 2511.01 412.684 2593.32C381.905 2683.08 365.381 2797.43 276.577 2840.78C186.858 2884.58 98.3831 2797.56 1.99798 2793.81Z" stroke="#F0DEFF" stroke-opacity="0.6" stroke-width="1.58384"/>
</g>
<g opacity="0.4" filter="url(#filter11_f_564_2)">
<path opacity="0.5" fill-rule="evenodd" clip-rule="evenodd" d="M721.594 4234.39C611.839 4230.12 476.026 4333.45 397.519 4265.93C317.729 4197.31 403.473 4058.1 393.316 3952.06C385.086 3866.14 332.339 3793.56 343.908 3706.21C358.597 3595.31 361.809 3449.16 467.229 3394.05C575.344 3337.53 679.3 3464.78 797.003 3469.35C906.866 3473.62 1025.19 3374.18 1120.65 3419.42C1217.29 3465.22 1243.63 3585.68 1261.93 3689.68C1279.43 3789.18 1255.44 3890.43 1221.11 3990.54C1183.67 4099.72 1163.58 4238.8 1055.56 4291.53C946.438 4344.8 838.827 4238.95 721.594 4234.39Z" stroke="#F0DEFF" stroke-opacity="0.6" stroke-width="1.58384"/>
<path opacity="0.5" fill-rule="evenodd" clip-rule="evenodd" d="M715.189 4224.42C605.435 4220.15 469.622 4323.48 391.115 4255.96C311.325 4187.34 397.069 4048.13 386.912 3942.09C378.682 3856.17 325.934 3783.59 337.504 3696.24C352.193 3585.34 355.405 3439.19 460.825 3384.08C568.94 3327.56 672.896 3454.81 790.599 3459.38C900.461 3463.64 1018.78 3364.21 1114.25 3409.45C1210.89 3455.25 1237.23 3575.71 1255.52 3679.71C1273.02 3779.21 1249.03 3880.46 1214.71 3980.57C1177.27 4089.75 1157.17 4228.82 1049.16 4281.55C940.034 4334.83 832.422 4228.98 715.189 4224.42Z" stroke="#F0DEFF" stroke-opacity="0.6" stroke-width="1.58384"/>
<path opacity="0.5" fill-rule="evenodd" clip-rule="evenodd" d="M711.16 4214.1C601.405 4209.83 465.592 4313.15 387.085 4245.64C307.295 4177.01 393.039 4037.81 382.883 3931.77C374.652 3845.84 321.905 3773.26 333.474 3685.92C348.164 3575.02 351.376 3428.87 456.796 3373.76C564.911 3317.24 668.867 3444.49 786.569 3449.05C896.432 3453.32 1014.75 3353.88 1110.22 3399.12C1206.86 3444.92 1233.2 3565.39 1251.49 3669.39C1269 3768.88 1245 3870.13 1210.68 3970.24C1173.24 4079.42 1153.14 4218.5 1045.13 4271.23C936.004 4324.5 828.393 4218.65 711.16 4214.1Z" stroke="#F0DEFF" stroke-opacity="0.6" stroke-width="1.58384"/>
</g>
</g>
<defs>
<filter id="filter0_f_564_2" x="232" y="-171" width="1173" height="1173" filterUnits="userSpaceOnUse" color-interpolation-filters="sRGB">
<feFlood flood-opacity="0" result="BackgroundImageFix"/>
<feBlend mode="normal" in="SourceGraphic" in2="BackgroundImageFix" result="shape"/>
<feGaussianBlur stdDeviation="150" result="effect1_foregroundBlur_564_2"/>
</filter>
<filter id="filter1_f_564_2" x="-465" y="-182" width="993" height="993" filterUnits="userSpaceOnUse" color-interpolation-filters="sRGB">
<feFlood flood-opacity="0" result="BackgroundImageFix"/>
<feBlend mode="normal" in="SourceGraphic" in2="BackgroundImageFix" result="shape"/>
<feGaussianBlur stdDeviation="150" result="effect1_foregroundBlur_564_2"/>
</filter>
<filter id="filter2_f_564_2" x="-454" y="601" width="993" height="993" filterUnits="userSpaceOnUse" color-interpolation-filters="sRGB">
<feFlood flood-opacity="0" result="BackgroundImageFix"/>
<feBlend mode="normal" in="SourceGraphic" in2="BackgroundImageFix" result="shape"/>
<feGaussianBlur stdDeviation="150" result="effect1_foregroundBlur_564_2"/>
</filter>
<filter id="filter3_f_564_2" x="397" y="875" width="993" height="993" filterUnits="userSpaceOnUse" color-interpolation-filters="sRGB">
<feFlood flood-opacity="0" result="BackgroundImageFix"/>
<feBlend mode="normal" in="SourceGraphic" in2="BackgroundImageFix" result="shape"/>
<feGaussianBlur stdDeviation="150" result="effect1_foregroundBlur_564_2"/>
</filter>
<filter id="filter4_f_564_2" x="-326" y="1553" width="1108" height="1108" filterUnits="userSpaceOnUse" color-interpolation-filters="sRGB">
<feFlood flood-opacity="0" result="BackgroundImageFix"/>
<feBlend mode="normal" in="SourceGraphic" in2="BackgroundImageFix" result="shape"/>
<feGaussianBlur stdDeviation="150" result="effect1_foregroundBlur_564_2"/>
</filter>
<filter id="filter5_f_564_2" x="238" y="2205" width="1108" height="1108" filterUnits="userSpaceOnUse" color-interpolation-filters="sRGB">
<feFlood flood-opacity="0" result="BackgroundImageFix"/>
<feBlend mode="normal" in="SourceGraphic" in2="BackgroundImageFix" result="shape"/>
<feGaussianBlur stdDeviation="150" result="effect1_foregroundBlur_564_2"/>
</filter>
<filter id="filter6_f_564_2" x="-451" y="2783" width="1108" height="1108" filterUnits="userSpaceOnUse" color-interpolation-filters="sRGB">
<feFlood flood-opacity="0" result="BackgroundImageFix"/>
<feBlend mode="normal" in="SourceGraphic" in2="BackgroundImageFix" result="shape"/>
<feGaussianBlur stdDeviation="150" result="effect1_foregroundBlur_564_2"/>
</filter>
<filter id="filter7_f_564_2" x="340" y="3186" width="1108" height="1108" filterUnits="userSpaceOnUse" color-interpolation-filters="sRGB">
<feFlood flood-opacity="0" result="BackgroundImageFix"/>
<feBlend mode="normal" in="SourceGraphic" in2="BackgroundImageFix" result="shape"/>
<feGaussianBlur stdDeviation="150" result="effect1_foregroundBlur_564_2"/>
</filter>
<filter id="filter8_f_564_2" x="-538.818" y="733.145" width="951.063" height="957.797" filterUnits="userSpaceOnUse" color-interpolation-filters="sRGB">
<feFlood flood-opacity="0" result="BackgroundImageFix"/>
<feBlend mode="normal" in="SourceGraphic" in2="BackgroundImageFix" result="shape"/>
<feGaussianBlur stdDeviation="1.81147" result="effect1_foregroundBlur_564_2"/>
</filter>
<filter id="filter9_f_564_2" x="609.236" y="1046.42" width="1481.17" height="1486.16" filterUnits="userSpaceOnUse" color-interpolation-filters="sRGB">
<feFlood flood-opacity="0" result="BackgroundImageFix"/>
<feBlend mode="normal" in="SourceGraphic" in2="BackgroundImageFix" result="shape"/>
<feGaussianBlur stdDeviation="5" result="effect1_foregroundBlur_564_2"/>
</filter>
<filter id="filter10_f_564_2" x="-314.899" y="2086.02" width="779.566" height="788.755" filterUnits="userSpaceOnUse" color-interpolation-filters="sRGB">
<feFlood flood-opacity="0" result="BackgroundImageFix"/>
<feBlend mode="normal" in="SourceGraphic" in2="BackgroundImageFix" result="shape"/>
<feGaussianBlur stdDeviation="2.11178" result="effect1_foregroundBlur_564_2"/>
</filter>
<filter id="filter11_f_564_2" x="326.805" y="3354.3" width="946.013" height="957.191" filterUnits="userSpaceOnUse" color-interpolation-filters="sRGB">
<feFlood flood-opacity="0" result="BackgroundImageFix"/>
<feBlend mode="normal" in="SourceGraphic" in2="BackgroundImageFix" result="shape"/>
<feGaussianBlur stdDeviation="2.11178" result="effect1_foregroundBlur_564_2"/>
</filter>
<clipPath id="clip0_564_2">
<rect width="1024" height="3764" fill="white"/>
</clipPath>
</defs>
</svg>
