<svg width="360" height="4735" viewBox="0 0 360 4735" fill="none" xmlns="http://www.w3.org/2000/svg">
<g clip-path="url(#clip0_564_115)">
<rect width="360" height="4735" fill="#120C21"/>
<g filter="url(#filter0_f_564_115)">
<circle cx="179.5" cy="495.5" r="160.5" fill="#8D08FF" fill-opacity="0.4"/>
</g>
<g filter="url(#filter1_f_564_115)">
<circle cx="201.5" cy="14.5" r="104.5" fill="#8D08FF" fill-opacity="0.2"/>
</g>
<g filter="url(#filter2_f_564_115)">
<circle cx="303.5" cy="1459.5" r="104.5" fill="#8D08FF" fill-opacity="0.2"/>
</g>
<g filter="url(#filter3_f_564_115)">
<circle cx="19.5" cy="2112.5" r="104.5" fill="#8D08FF" fill-opacity="0.2"/>
</g>
<g filter="url(#filter4_f_564_115)">
<circle cx="270.5" cy="2655.5" r="104.5" fill="#8D08FF" fill-opacity="0.2"/>
</g>
<g filter="url(#filter5_f_564_115)">
<circle cx="91.5" cy="3187.5" r="104.5" fill="#8D08FF" fill-opacity="0.2"/>
</g>
<g filter="url(#filter6_f_564_115)">
<circle cx="300.5" cy="3583.5" r="104.5" fill="#8D08FF" fill-opacity="0.2"/>
</g>
<g filter="url(#filter7_f_564_115)">
<circle cx="91.5" cy="3997.5" r="104.5" fill="#8D08FF" fill-opacity="0.2"/>
</g>
<g filter="url(#filter8_f_564_115)">
<circle cx="284.5" cy="4423.5" r="104.5" fill="#8D08FF" fill-opacity="0.2"/>
</g>
<g filter="url(#filter9_f_564_115)">
<circle cx="75.5" cy="4690.5" r="104.5" fill="#8D08FF" fill-opacity="0.2"/>
</g>
<g opacity="0.4" filter="url(#filter10_f_564_115)">
<path opacity="0.5" fill-rule="evenodd" clip-rule="evenodd" d="M50.3623 925.852C35.0717 946.164 36.808 985.626 13.6097 991.651C-9.96759 997.774 -25.1329 963.102 -46.6413 951.045C-64.0699 941.275 -84.833 941.733 -99.9192 928.01C-119.074 910.587 -146.448 890.696 -143.023 863.375C-139.511 835.356 -101.595 832.37 -85.1983 810.586C-69.8941 790.254 -73.1978 754.631 -51.9998 742.443C-30.5403 730.103 -4.15354 740.984 18.0405 751.225C39.2729 761.021 55.3655 778.942 69.8777 798.677C85.7047 820.2 109.506 842.369 105.286 869.869C101.023 897.652 66.6948 904.156 50.3623 925.852Z" stroke="#F0DEFF" stroke-opacity="0.6" stroke-width="1.3586"/>
<path opacity="0.5" fill-rule="evenodd" clip-rule="evenodd" d="M49.1631 925.754C33.8725 946.066 35.6088 985.528 12.4105 991.553C-11.1668 997.677 -26.3322 963.004 -47.8406 950.948C-65.2692 941.178 -86.0322 941.635 -101.118 927.913C-120.273 910.489 -147.647 890.598 -144.222 863.277C-140.71 835.258 -102.794 832.273 -86.3975 810.489C-71.0934 790.156 -74.397 754.534 -53.199 742.345C-31.7396 730.006 -5.35276 740.887 16.8413 751.127C38.0737 760.924 54.1663 778.844 68.6784 798.579C84.5054 820.102 108.307 842.272 104.087 869.771C99.8233 897.554 65.4955 904.058 49.1631 925.754Z" stroke="#F0DEFF" stroke-opacity="0.6" stroke-width="1.3586"/>
<path opacity="0.5" fill-rule="evenodd" clip-rule="evenodd" d="M47.9619 925.161C32.6713 945.472 34.4077 984.934 11.2094 990.959C-12.368 997.083 -27.5333 962.411 -49.0417 950.354C-66.4703 940.584 -87.2334 941.042 -102.32 927.319C-121.475 909.895 -148.849 890.004 -145.424 862.684C-141.911 834.665 -103.995 831.679 -87.5987 809.895C-72.2945 789.562 -75.5982 753.94 -54.4002 741.751C-32.9407 729.412 -6.55394 740.293 15.6401 750.533C36.8725 760.33 52.9651 778.25 67.4773 797.985C83.3043 819.508 107.105 841.678 102.885 869.178C98.6221 896.96 64.2944 903.465 47.9619 925.161Z" stroke="#F0DEFF" stroke-opacity="0.6" stroke-width="1.3586"/>
</g>
<g opacity="0.4" filter="url(#filter11_f_564_115)">
<path opacity="0.5" fill-rule="evenodd" clip-rule="evenodd" d="M393.362 1477.85C378.072 1498.16 379.808 1537.63 356.61 1543.65C333.032 1549.77 317.867 1515.1 296.359 1503.05C278.93 1493.28 258.167 1493.73 243.081 1480.01C223.926 1462.59 196.552 1442.7 199.977 1415.38C203.489 1387.36 241.405 1384.37 257.802 1362.59C273.106 1342.25 269.802 1306.63 291 1294.44C312.46 1282.1 338.846 1292.98 361.04 1303.22C382.273 1313.02 398.366 1330.94 412.878 1350.68C428.705 1372.2 452.506 1394.37 448.286 1421.87C444.023 1449.65 409.695 1456.16 393.362 1477.85Z" stroke="#F0DEFF" stroke-opacity="0.6" stroke-width="1.3586"/>
<path opacity="0.5" fill-rule="evenodd" clip-rule="evenodd" d="M392.163 1477.75C376.872 1498.07 378.609 1537.53 355.411 1543.55C331.833 1549.68 316.668 1515 295.159 1502.95C277.731 1493.18 256.968 1493.64 241.882 1479.91C222.727 1462.49 195.353 1442.6 198.778 1415.28C202.29 1387.26 240.206 1384.27 256.602 1362.49C271.907 1342.16 268.603 1306.53 289.801 1294.34C311.26 1282.01 337.647 1292.89 359.841 1303.13C381.074 1312.92 397.166 1330.84 411.678 1350.58C427.505 1372.1 451.307 1394.27 447.087 1421.77C442.823 1449.55 408.496 1456.06 392.163 1477.75Z" stroke="#F0DEFF" stroke-opacity="0.6" stroke-width="1.3586"/>
<path opacity="0.5" fill-rule="evenodd" clip-rule="evenodd" d="M390.962 1477.16C375.671 1497.47 377.408 1536.93 354.209 1542.96C330.632 1549.08 315.467 1514.41 293.958 1502.35C276.53 1492.58 255.767 1493.04 240.68 1479.32C221.525 1461.9 194.151 1442 197.576 1414.68C201.089 1386.66 239.005 1383.68 255.401 1361.9C270.705 1341.56 267.402 1305.94 288.6 1293.75C310.059 1281.41 336.446 1292.29 358.64 1302.53C379.873 1312.33 395.965 1330.25 410.477 1349.99C426.304 1371.51 450.105 1393.68 445.885 1421.18C441.622 1448.96 407.294 1455.46 390.962 1477.16Z" stroke="#F0DEFF" stroke-opacity="0.6" stroke-width="1.3586"/>
</g>
<g opacity="0.4" filter="url(#filter12_f_564_115)">
<path opacity="0.5" fill-rule="evenodd" clip-rule="evenodd" d="M142.86 2087.33C152.669 2110.78 187.606 2129.21 181.091 2152.28C174.469 2175.72 136.884 2171.3 115.616 2183.77C98.3817 2193.88 88.291 2212.03 68.828 2218.13C44.116 2225.86 13.1234 2239.44 -8.72751 2222.69C-31.1371 2205.5 -14.5658 2171.27 -25.0873 2146.12C-34.908 2122.64 -67.3222 2107.5 -67.1371 2083.05C-66.9496 2058.3 -44.2324 2041.02 -24.1855 2027.03C-5.00716 2013.65 18.5872 2008.82 42.9495 2006.26C69.5191 2003.47 100.674 1994.12 122.278 2011.65C144.105 2029.36 132.382 2062.27 142.86 2087.33Z" stroke="#F0DEFF" stroke-opacity="0.6" stroke-width="1.3586"/>
<path opacity="0.5" fill-rule="evenodd" clip-rule="evenodd" d="M142.168 2088.31C151.978 2111.77 186.915 2130.2 180.399 2153.26C173.778 2176.71 136.193 2172.28 114.925 2184.76C97.6903 2194.87 87.5996 2213.02 68.1366 2219.11C43.4246 2226.85 12.432 2240.43 -9.41891 2223.67C-31.8285 2206.49 -15.2572 2172.26 -25.7787 2147.1C-35.5994 2123.63 -68.0137 2108.49 -67.8285 2084.04C-67.641 2059.28 -44.9238 2042 -24.8769 2028.02C-5.69857 2014.64 17.8958 2009.8 42.2581 2007.24C68.8277 2004.45 99.9824 1995.1 121.587 2012.63C143.413 2030.35 131.691 2063.26 142.168 2088.31Z" stroke="#F0DEFF" stroke-opacity="0.6" stroke-width="1.3586"/>
<path opacity="0.5" fill-rule="evenodd" clip-rule="evenodd" d="M141.051 2089.05C150.861 2112.5 185.798 2130.93 179.282 2154C172.66 2177.44 135.076 2173.02 113.807 2185.5C96.5731 2195.61 86.4824 2213.76 67.0195 2219.85C42.3074 2227.58 11.3148 2241.16 -10.5361 2224.41C-32.9457 2207.23 -16.3744 2172.99 -26.8959 2147.84C-36.7166 2124.36 -69.1309 2109.22 -68.9457 2084.77C-68.7582 2060.02 -46.041 2042.74 -25.9941 2028.76C-6.81576 2015.38 16.7786 2010.54 41.1409 2007.98C67.7105 2005.19 98.8652 1995.84 120.469 2013.37C142.296 2031.08 130.574 2063.99 141.051 2089.05Z" stroke="#F0DEFF" stroke-opacity="0.6" stroke-width="1.3586"/>
</g>
<g opacity="0.4" filter="url(#filter13_f_564_115)">
<path opacity="0.5" fill-rule="evenodd" clip-rule="evenodd" d="M609.423 2678.89C627.611 2722.38 692.389 2756.55 680.308 2799.32C668.031 2842.79 598.344 2834.59 558.909 2857.72C526.955 2876.46 508.245 2910.12 472.159 2921.41C426.339 2935.75 368.875 2960.93 328.361 2929.87C286.81 2898.01 317.536 2834.54 298.027 2787.9C279.819 2744.37 219.718 2716.3 220.062 2670.97C220.409 2625.07 262.53 2593.03 299.7 2567.1C335.259 2542.3 379.006 2533.32 424.176 2528.58C473.44 2523.4 531.205 2506.07 571.262 2538.58C611.731 2571.41 589.996 2632.44 609.423 2678.89Z" stroke="#F0DEFF" stroke-opacity="0.6" stroke-width="1.3586"/>
<path opacity="0.5" fill-rule="evenodd" clip-rule="evenodd" d="M608.144 2680.73C626.332 2724.21 691.109 2758.39 679.029 2801.15C666.751 2844.62 597.065 2836.42 557.63 2859.55C525.676 2878.3 506.966 2911.95 470.879 2923.24C425.06 2937.58 367.596 2962.77 327.081 2931.7C285.531 2899.84 316.256 2836.37 296.748 2789.73C278.539 2746.2 218.439 2718.14 218.782 2672.8C219.13 2626.9 261.251 2594.86 298.42 2568.94C333.979 2544.13 377.726 2535.16 422.897 2530.41C472.161 2525.24 529.925 2507.91 569.982 2540.41C610.452 2573.25 588.717 2634.27 608.144 2680.73Z" stroke="#F0DEFF" stroke-opacity="0.6" stroke-width="1.3586"/>
<path opacity="0.5" fill-rule="evenodd" clip-rule="evenodd" d="M606.07 2682.09C624.258 2725.58 689.035 2759.75 676.955 2802.51C664.677 2845.98 594.99 2837.78 555.556 2860.91C523.601 2879.66 504.892 2913.31 468.805 2924.61C422.986 2938.95 365.522 2964.13 325.007 2933.06C283.457 2901.21 314.182 2837.73 294.674 2791.1C276.465 2747.57 216.365 2719.5 216.708 2674.16C217.056 2628.26 259.177 2596.23 296.346 2570.3C331.905 2545.49 375.652 2536.52 420.823 2531.77C470.086 2526.6 527.851 2509.27 567.908 2541.77C608.377 2574.61 586.643 2635.63 606.07 2682.09Z" stroke="#F0DEFF" stroke-opacity="0.6" stroke-width="1.3586"/>
</g>
<g opacity="0.4" filter="url(#filter14_f_564_115)">
<path opacity="0.5" fill-rule="evenodd" clip-rule="evenodd" d="M-197.177 3570.24C-170.178 3531.6 -175.989 3458.59 -133.399 3445.91C-90.1134 3433.01 -59.7343 3496.26 -19.0878 3517.19C13.8488 3534.15 52.2919 3531.93 81.1478 3556.37C117.786 3587.4 169.816 3622.46 165.265 3673.3C160.597 3725.45 90.5366 3733.48 61.5863 3774.92C34.5643 3813.6 43.0265 3879.39 4.54826 3903.37C-34.4046 3927.64 -84.0133 3909.21 -125.811 3891.7C-165.798 3874.94 -196.794 3842.79 -224.981 3807.18C-255.722 3768.34 -301.282 3728.82 -295.269 3677.59C-289.195 3625.83 -226.014 3611.52 -197.177 3570.24Z" stroke="#F0DEFF" stroke-opacity="0.6" stroke-width="1.3586"/>
<path opacity="0.5" fill-rule="evenodd" clip-rule="evenodd" d="M-194.944 3570.34C-167.946 3531.7 -173.756 3458.7 -131.167 3446.01C-87.881 3433.11 -57.5019 3496.36 -16.8554 3517.29C16.0812 3534.25 54.5243 3532.03 83.3802 3556.47C120.019 3587.5 172.049 3622.56 167.497 3673.41C162.83 3725.55 92.769 3733.58 63.8187 3775.02C36.7967 3813.7 45.2589 3879.49 6.78068 3903.47C-32.1721 3927.74 -81.7809 3909.32 -123.579 3891.8C-163.565 3875.04 -194.562 3842.89 -222.749 3807.28C-253.49 3768.44 -299.049 3728.92 -293.037 3677.69C-286.963 3625.93 -223.782 3611.62 -194.944 3570.34Z" stroke="#F0DEFF" stroke-opacity="0.6" stroke-width="1.3586"/>
<path opacity="0.5" fill-rule="evenodd" clip-rule="evenodd" d="M-192.683 3571.37C-165.684 3532.73 -171.495 3459.72 -128.905 3447.03C-85.6193 3434.14 -55.2401 3497.39 -14.5936 3518.31C18.3429 3535.27 56.786 3533.06 85.6419 3557.5C122.28 3588.52 174.31 3623.58 169.759 3674.43C165.091 3726.58 95.0307 3734.6 66.0804 3776.04C39.0584 3814.73 47.5206 3880.52 9.04243 3904.49C-29.9104 3928.77 -79.5192 3910.34 -121.317 3892.82C-161.303 3876.07 -192.3 3843.92 -220.487 3808.3C-251.228 3769.46 -296.788 3729.95 -290.775 3678.71C-284.701 3626.95 -221.52 3612.64 -192.683 3571.37Z" stroke="#F0DEFF" stroke-opacity="0.6" stroke-width="1.3586"/>
</g>
<g opacity="0.4" filter="url(#filter15_f_564_115)">
<path opacity="0.5" fill-rule="evenodd" clip-rule="evenodd" d="M227.652 4391.77C207.047 4356.83 148.481 4338.28 153.37 4298.65C158.339 4258.36 217.836 4253.27 248.096 4226.03C272.616 4203.96 284.187 4171.15 313.09 4154.89C349.788 4134.24 394.929 4102.02 432.749 4122.13C471.535 4142.74 453.539 4203.82 475.639 4241.29C496.267 4276.25 550.158 4290.28 555.436 4330.1C560.779 4370.41 529.358 4405.93 501.343 4435.22C474.542 4463.24 438.925 4478.82 401.594 4490.95C360.88 4504.17 314.523 4529.55 276.91 4508.1C238.911 4486.43 249.662 4429.08 227.652 4391.77Z" stroke="#F0DEFF" stroke-opacity="0.6" stroke-width="3"/>
<path opacity="0.5" fill-rule="evenodd" clip-rule="evenodd" d="M229.41 4387.52C208.805 4352.59 150.238 4334.03 155.128 4294.4C160.096 4254.12 219.594 4249.02 249.854 4221.79C274.374 4199.72 285.945 4166.9 314.848 4150.64C351.546 4129.99 396.687 4097.78 434.507 4117.88C473.293 4138.5 455.297 4199.58 477.397 4237.04C498.024 4272.01 551.916 4286.03 557.194 4325.85C562.537 4366.16 531.116 4401.69 503.101 4430.98C476.3 4459 440.683 4474.58 403.351 4486.7C362.637 4499.92 316.28 4525.3 278.668 4503.85C240.669 4482.19 251.419 4424.84 229.41 4387.52Z" stroke="#F0DEFF" stroke-opacity="0.6" stroke-width="3"/>
<path opacity="0.5" fill-rule="evenodd" clip-rule="evenodd" d="M231.75 4383.93C211.145 4348.99 152.578 4330.44 157.467 4290.81C162.436 4250.52 221.934 4245.43 252.194 4218.19C276.713 4196.13 288.285 4163.31 317.188 4147.05C353.886 4126.4 399.027 4094.18 436.846 4114.29C475.633 4134.9 457.636 4195.98 479.736 4233.45C500.364 4268.41 554.255 4282.44 559.533 4322.26C564.876 4362.57 533.456 4398.09 505.441 4427.38C478.64 4455.4 443.023 4470.98 405.691 4483.11C364.977 4496.33 318.62 4521.71 281.008 4500.26C243.009 4478.59 253.759 4421.24 231.75 4383.93Z" stroke="#F0DEFF" stroke-opacity="0.6" stroke-width="3"/>
</g>
</g>
<defs>
<filter id="filter0_f_564_115" x="-281" y="35" width="921" height="921" filterUnits="userSpaceOnUse" color-interpolation-filters="sRGB">
<feFlood flood-opacity="0" result="BackgroundImageFix"/>
<feBlend mode="normal" in="SourceGraphic" in2="BackgroundImageFix" result="shape"/>
<feGaussianBlur stdDeviation="150" result="effect1_foregroundBlur_564_115"/>
</filter>
<filter id="filter1_f_564_115" x="-43" y="-230" width="489" height="489" filterUnits="userSpaceOnUse" color-interpolation-filters="sRGB">
<feFlood flood-opacity="0" result="BackgroundImageFix"/>
<feBlend mode="normal" in="SourceGraphic" in2="BackgroundImageFix" result="shape"/>
<feGaussianBlur stdDeviation="70" result="effect1_foregroundBlur_564_115"/>
</filter>
<filter id="filter2_f_564_115" x="59" y="1215" width="489" height="489" filterUnits="userSpaceOnUse" color-interpolation-filters="sRGB">
<feFlood flood-opacity="0" result="BackgroundImageFix"/>
<feBlend mode="normal" in="SourceGraphic" in2="BackgroundImageFix" result="shape"/>
<feGaussianBlur stdDeviation="70" result="effect1_foregroundBlur_564_115"/>
</filter>
<filter id="filter3_f_564_115" x="-225" y="1868" width="489" height="489" filterUnits="userSpaceOnUse" color-interpolation-filters="sRGB">
<feFlood flood-opacity="0" result="BackgroundImageFix"/>
<feBlend mode="normal" in="SourceGraphic" in2="BackgroundImageFix" result="shape"/>
<feGaussianBlur stdDeviation="70" result="effect1_foregroundBlur_564_115"/>
</filter>
<filter id="filter4_f_564_115" x="26" y="2411" width="489" height="489" filterUnits="userSpaceOnUse" color-interpolation-filters="sRGB">
<feFlood flood-opacity="0" result="BackgroundImageFix"/>
<feBlend mode="normal" in="SourceGraphic" in2="BackgroundImageFix" result="shape"/>
<feGaussianBlur stdDeviation="70" result="effect1_foregroundBlur_564_115"/>
</filter>
<filter id="filter5_f_564_115" x="-153" y="2943" width="489" height="489" filterUnits="userSpaceOnUse" color-interpolation-filters="sRGB">
<feFlood flood-opacity="0" result="BackgroundImageFix"/>
<feBlend mode="normal" in="SourceGraphic" in2="BackgroundImageFix" result="shape"/>
<feGaussianBlur stdDeviation="70" result="effect1_foregroundBlur_564_115"/>
</filter>
<filter id="filter6_f_564_115" x="56" y="3339" width="489" height="489" filterUnits="userSpaceOnUse" color-interpolation-filters="sRGB">
<feFlood flood-opacity="0" result="BackgroundImageFix"/>
<feBlend mode="normal" in="SourceGraphic" in2="BackgroundImageFix" result="shape"/>
<feGaussianBlur stdDeviation="70" result="effect1_foregroundBlur_564_115"/>
</filter>
<filter id="filter7_f_564_115" x="-153" y="3753" width="489" height="489" filterUnits="userSpaceOnUse" color-interpolation-filters="sRGB">
<feFlood flood-opacity="0" result="BackgroundImageFix"/>
<feBlend mode="normal" in="SourceGraphic" in2="BackgroundImageFix" result="shape"/>
<feGaussianBlur stdDeviation="70" result="effect1_foregroundBlur_564_115"/>
</filter>
<filter id="filter8_f_564_115" x="40" y="4179" width="489" height="489" filterUnits="userSpaceOnUse" color-interpolation-filters="sRGB">
<feFlood flood-opacity="0" result="BackgroundImageFix"/>
<feBlend mode="normal" in="SourceGraphic" in2="BackgroundImageFix" result="shape"/>
<feGaussianBlur stdDeviation="70" result="effect1_foregroundBlur_564_115"/>
</filter>
<filter id="filter9_f_564_115" x="-169" y="4446" width="489" height="489" filterUnits="userSpaceOnUse" color-interpolation-filters="sRGB">
<feFlood flood-opacity="0" result="BackgroundImageFix"/>
<feBlend mode="normal" in="SourceGraphic" in2="BackgroundImageFix" result="shape"/>
<feGaussianBlur stdDeviation="70" result="effect1_foregroundBlur_564_115"/>
</filter>
<filter id="filter10_f_564_115" x="-149.986" y="731.923" width="260.035" height="264.781" filterUnits="userSpaceOnUse" color-interpolation-filters="sRGB">
<feFlood flood-opacity="0" result="BackgroundImageFix"/>
<feBlend mode="normal" in="SourceGraphic" in2="BackgroundImageFix" result="shape"/>
<feGaussianBlur stdDeviation="1.81147" result="effect1_foregroundBlur_564_115"/>
</filter>
<filter id="filter11_f_564_115" x="193.014" y="1283.92" width="260.035" height="264.781" filterUnits="userSpaceOnUse" color-interpolation-filters="sRGB">
<feFlood flood-opacity="0" result="BackgroundImageFix"/>
<feBlend mode="normal" in="SourceGraphic" in2="BackgroundImageFix" result="shape"/>
<feGaussianBlur stdDeviation="1.81147" result="effect1_foregroundBlur_564_115"/>
</filter>
<filter id="filter12_f_564_115" x="-73.2714" y="1996.98" width="259.492" height="239.698" filterUnits="userSpaceOnUse" color-interpolation-filters="sRGB">
<feFlood flood-opacity="0" result="BackgroundImageFix"/>
<feBlend mode="normal" in="SourceGraphic" in2="BackgroundImageFix" result="shape"/>
<feGaussianBlur stdDeviation="1.81147" result="effect1_foregroundBlur_564_115"/>
</filter>
<filter id="filter13_f_564_115" x="212.383" y="2515.04" width="473.742" height="437.122" filterUnits="userSpaceOnUse" color-interpolation-filters="sRGB">
<feFlood flood-opacity="0" result="BackgroundImageFix"/>
<feBlend mode="normal" in="SourceGraphic" in2="BackgroundImageFix" result="shape"/>
<feGaussianBlur stdDeviation="1.81147" result="effect1_foregroundBlur_564_115"/>
</filter>
<filter id="filter14_f_564_115" x="-300.08" y="3439.85" width="474.388" height="480.638" filterUnits="userSpaceOnUse" color-interpolation-filters="sRGB">
<feFlood flood-opacity="0" result="BackgroundImageFix"/>
<feBlend mode="normal" in="SourceGraphic" in2="BackgroundImageFix" result="shape"/>
<feGaussianBlur stdDeviation="1.81147" result="effect1_foregroundBlur_564_115"/>
</filter>
<filter id="filter15_f_564_115" x="141.562" y="4096.45" width="430.088" height="431.426" filterUnits="userSpaceOnUse" color-interpolation-filters="sRGB">
<feFlood flood-opacity="0" result="BackgroundImageFix"/>
<feBlend mode="normal" in="SourceGraphic" in2="BackgroundImageFix" result="shape"/>
<feGaussianBlur stdDeviation="5" result="effect1_foregroundBlur_564_115"/>
</filter>
<clipPath id="clip0_564_115">
<rect width="360" height="4735" fill="white"/>
</clipPath>
</defs>
</svg>
