<svg width="50" height="50" viewBox="0 0 50 50" fill="none" xmlns="http://www.w3.org/2000/svg">
<path d="M25.0003 23.9584C23.619 23.9584 22.2942 23.4097 21.3175 22.4329C20.3407 21.4562 19.792 20.1314 19.792 18.7501C19.792 17.3687 20.3407 16.044 21.3175 15.0672C22.2942 14.0905 23.619 13.5417 25.0003 13.5417C26.3817 13.5417 27.7064 14.0905 28.6832 15.0672C29.6599 16.044 30.2087 17.3687 30.2087 18.7501C30.2087 19.4341 30.0739 20.1113 29.8122 20.7432C29.5505 21.3751 29.1668 21.9493 28.6832 22.4329C28.1995 22.9166 27.6254 23.3002 26.9935 23.562C26.3616 23.8237 25.6843 23.9584 25.0003 23.9584ZM25.0003 4.16675C21.1326 4.16675 17.4233 5.7032 14.6884 8.43811C11.9534 11.173 10.417 14.8823 10.417 18.7501C10.417 29.6876 25.0003 45.8334 25.0003 45.8334C25.0003 45.8334 39.5837 29.6876 39.5837 18.7501C39.5837 14.8823 38.0472 11.173 35.3123 8.43811C32.5774 5.7032 28.8681 4.16675 25.0003 4.16675Z" fill="white"/>
</svg>
