<svg width="506" height="1196" viewBox="0 0 506 1196" fill="none" xmlns="http://www.w3.org/2000/svg">
<g opacity="0.4" filter="url(#filter0_f_229_66)">
<path opacity="0.5" fill-rule="evenodd" clip-rule="evenodd" d="M194.284 850.256C137.38 925.367 143.301 1071.66 57.2898 1093.72C-30.1267 1116.14 -85.8542 987.449 -165.371 942.507C-229.805 906.089 -306.723 907.543 -362.429 856.502C-433.159 791.694 -534.302 717.645 -521.261 616.416C-507.886 512.599 -367.396 501.974 -306.377 421.42C-249.423 346.231 -261.199 214.152 -182.518 169.22C-102.866 123.733 -5.2627 164.374 76.8176 202.59C155.342 239.151 214.721 305.765 268.222 379.085C326.571 459.049 414.45 541.502 398.462 643.386C382.309 746.319 255.065 770.027 194.284 850.256Z" stroke="#F0DEFF" stroke-opacity="0.6"/>
<path opacity="0.5" fill-rule="evenodd" clip-rule="evenodd" d="M184.285 849.256C127.381 924.367 133.301 1070.66 47.2902 1092.72C-40.1262 1115.14 -95.8537 986.449 -175.371 941.507C-239.805 905.089 -316.723 906.543 -372.429 855.502C-443.158 790.694 -544.302 716.645 -531.26 615.416C-517.886 511.599 -377.395 500.974 -316.377 420.42C-259.422 345.231 -271.198 213.152 -192.517 168.22C-112.865 122.733 -15.2622 163.374 66.8181 201.59C145.342 238.151 204.721 304.765 258.223 378.085C316.572 458.049 404.45 540.502 388.462 642.386C372.31 745.319 245.066 769.027 184.285 849.256Z" stroke="#F0DEFF" stroke-opacity="0.6"/>
<path opacity="0.5" fill-rule="evenodd" clip-rule="evenodd" d="M175.285 847.255C118.381 922.367 124.301 1068.66 38.2902 1090.72C-49.1262 1113.14 -104.854 984.448 -184.371 939.506C-248.805 903.089 -325.723 904.543 -381.429 853.501C-452.158 788.694 -553.302 714.644 -540.26 613.415C-526.886 509.598 -386.395 498.974 -325.377 418.419C-268.422 343.23 -280.198 211.151 -201.517 166.219C-121.865 120.733 -24.2622 161.373 57.8181 199.59C136.342 236.151 195.721 302.764 249.223 376.085C307.572 456.049 395.45 538.502 379.462 640.386C363.31 743.318 236.066 767.026 175.285 847.255Z" stroke="#F0DEFF" stroke-opacity="0.6"/>
</g>
<defs>
<filter id="filter0_f_229_66" x="-545.505" y="141.959" width="949.978" height="958.511" filterUnits="userSpaceOnUse" color-interpolation-filters="sRGB">
<feFlood flood-opacity="0" result="BackgroundImageFix"/>
<feBlend mode="normal" in="SourceGraphic" in2="BackgroundImageFix" result="shape"/>
<feGaussianBlur stdDeviation="1.81147" result="effect1_foregroundBlur_229_66"/>
</filter>
</defs>
</svg>
