<svg width="1074" height="1353" viewBox="0 0 1074 1353" fill="none" xmlns="http://www.w3.org/2000/svg">
<g opacity="0.4" filter="url(#filter0_f_229_70)">
<path opacity="0.5" fill-rule="evenodd" clip-rule="evenodd" d="M656.565 480.002C582.155 355.154 372.051 289.677 388.88 147.542C405.984 3.08529 619.016 -16.1993 726.935 -114.334C814.384 -193.854 855.268 -311.657 958.517 -370.448C1089.61 -445.094 1250.75 -561.322 1386.57 -489.932C1525.85 -416.716 1462.45 -197.493 1542.25 -63.6116C1616.75 61.3519 1810.02 110.68 1829.62 253.304C1849.45 397.688 1737.52 525.538 1637.67 630.999C1542.15 731.889 1414.84 788.342 1281.33 832.434C1135.72 880.521 970.109 972.282 835.013 896.074C698.526 819.081 736.045 613.355 656.565 480.002Z" stroke="#F0DEFF" stroke-opacity="0.6" stroke-width="3"/>
<path opacity="0.5" fill-rule="evenodd" clip-rule="evenodd" d="M662.565 465.002C588.155 340.154 378.051 274.677 394.88 132.542C411.984 -11.9145 625.016 -31.1991 732.935 -129.334C820.384 -208.854 861.268 -326.657 964.517 -385.447C1095.61 -460.094 1256.75 -576.322 1392.57 -504.931C1531.85 -431.716 1468.45 -212.492 1548.25 -78.6114C1622.75 46.3521 1816.02 95.6806 1835.62 238.305C1855.45 382.688 1743.52 510.539 1643.67 615.999C1548.15 716.89 1420.84 773.343 1287.33 817.434C1141.72 865.521 976.109 957.282 841.013 881.074C704.526 804.081 742.045 598.355 662.565 465.002Z" stroke="#F0DEFF" stroke-opacity="0.6" stroke-width="3"/>
<path opacity="0.5" fill-rule="evenodd" clip-rule="evenodd" d="M670.566 452.001C596.156 327.154 386.052 261.677 402.881 119.542C419.984 -24.915 633.017 -44.1996 740.936 -142.334C828.385 -221.854 869.269 -339.657 972.518 -398.448C1103.61 -473.094 1264.75 -589.322 1400.57 -517.932C1539.86 -444.716 1476.45 -225.493 1556.25 -91.6118C1630.75 33.3516 1824.03 82.6801 1843.62 225.304C1863.45 369.687 1751.52 497.538 1651.67 602.998C1556.16 703.889 1428.84 760.342 1295.33 804.434C1149.72 852.521 984.11 944.282 849.014 868.073C712.527 791.081 750.046 585.355 670.566 452.001Z" stroke="#F0DEFF" stroke-opacity="0.6" stroke-width="3"/>
</g>
<defs>
<filter id="filter0_f_229_70" x="376.407" y="-551.731" width="1481.03" height="1488.45" filterUnits="userSpaceOnUse" color-interpolation-filters="sRGB">
<feFlood flood-opacity="0" result="BackgroundImageFix"/>
<feBlend mode="normal" in="SourceGraphic" in2="BackgroundImageFix" result="shape"/>
<feGaussianBlur stdDeviation="5" result="effect1_foregroundBlur_229_70"/>
</filter>
</defs>
</svg>
