<svg width="50" height="50" viewBox="0 0 50 50" fill="none" xmlns="http://www.w3.org/2000/svg">
<path d="M14.583 12.5C12.9254 12.5 11.3357 13.1585 10.1636 14.3306C8.99149 15.5027 8.33301 17.0924 8.33301 18.75V31.25C8.33301 32.9076 8.99149 34.4973 10.1636 35.6694C11.3357 36.8415 12.9254 37.5 14.583 37.5H35.4163C37.0739 37.5 38.6637 36.8415 39.8358 35.6694C41.0079 34.4973 41.6663 32.9076 41.6663 31.25V18.75C41.6663 17.0924 41.0079 15.5027 39.8358 14.3306C38.6637 13.1585 37.0739 12.5 35.4163 12.5H14.583ZM12.4997 18.75C12.4997 18.1975 12.7192 17.6676 13.1099 17.2769C13.5006 16.8862 14.0305 16.6667 14.583 16.6667H35.4163C35.9689 16.6667 36.4988 16.8862 36.8895 17.2769C37.2802 17.6676 37.4997 18.1975 37.4997 18.75V19.4583L24.9997 24.8167L12.4997 19.4583V18.75ZM12.4997 23.9917L24.1788 28.9958C24.4382 29.107 24.7175 29.1644 24.9997 29.1644C25.2819 29.1644 25.5611 29.107 25.8205 28.9958L37.4997 23.9917V31.25C37.4997 31.8025 37.2802 32.3324 36.8895 32.7231C36.4988 33.1138 35.9689 33.3333 35.4163 33.3333H14.583C14.0305 33.3333 13.5006 33.1138 13.1099 32.7231C12.7192 32.3324 12.4997 31.8025 12.4997 31.25V23.9917Z" fill="white"/>
</svg>
